<svg id="icon" xmlns="http://www.w3.org/2000/svg" viewBox="0 0 59.32 350.42"><defs><style>.cls-1{fill:#032a81;}.cls-2{fill:#0086a7;}.cls-3{fill:#81c91c;}.cls-4{fill:#febe12;}.cls-5{fill:#1d4b43;}.cls-6{fill:#41aaac;}.cls-7{fill:#ebf532;}</style></defs><title>chorus_icon</title><text x="-554.65" y="-347.52"/><text x="-554.65" y="-347.52"/><text x="-554.65" y="-347.52"/><text x="-554.65" y="-347.52"/><text x="-554.65" y="-347.52"/><polygon class="cls-1" points="29.66 179.48 44.49 205.17 14.83 205.17 29.66 179.48"/><polygon class="cls-2" points="14.83 153.88 29.66 179.56 0 179.56 14.83 153.88"/><polygon class="cls-3" points="14.83 102.51 29.66 128.19 0 128.19 14.83 102.51"/><polygon class="cls-4" points="44.49 102.51 59.32 128.19 29.66 128.19 44.49 102.51"/><polygon class="cls-5" points="14.83 205.17 0 179.48 29.66 179.48 14.83 205.17"/><polygon class="cls-3" points="44.49 205.17 29.66 179.48 59.32 179.48 44.49 205.17"/><polygon class="cls-6" points="14.83 153.88 0 128.19 29.66 128.19 14.83 153.88"/><polygon class="cls-7" points="29.66 128.19 14.83 102.51 44.49 102.51 29.66 128.19"/></svg>