<svg id="icon" xmlns="http://www.w3.org/2000/svg" viewBox="0 0 142.23 350.42"><defs><style>.cls-1{fill:#fff;}.cls-2{fill:#032a81;}.cls-3{fill:#0086a7;}.cls-4{fill:#81c91c;}.cls-5{fill:#febe12;}.cls-6{fill:#1d4b43;}.cls-7{fill:#41aaac;}.cls-8{fill:#ebf532;}</style></defs><title>chorus_icon_ios</title><text x="-512.53" y="-347.52"/><text x="-512.53" y="-347.52"/><text x="-512.53" y="-347.52"/><rect class="cls-1" y="84.2" width="142.23" height="142.11" rx="33" ry="33"/><text x="-512.53" y="-347.52"/><text x="-512.53" y="-347.52"/><polygon class="cls-2" points="71.78 179.48 86.61 205.17 56.95 205.17 71.78 179.48"/><polygon class="cls-3" points="56.95 153.88 71.78 179.56 42.12 179.56 56.95 153.88"/><polygon class="cls-4" points="56.95 102.51 71.78 128.19 42.12 128.19 56.95 102.51"/><polygon class="cls-5" points="86.61 102.51 101.44 128.19 71.78 128.19 86.61 102.51"/><polygon class="cls-6" points="56.95 205.17 42.12 179.48 71.78 179.48 56.95 205.17"/><polygon class="cls-4" points="86.61 205.17 71.78 179.48 101.44 179.48 86.61 205.17"/><polygon class="cls-7" points="56.95 153.88 42.12 128.19 71.78 128.19 56.95 153.88"/><polygon class="cls-8" points="71.78 128.19 56.95 102.51 86.61 102.51 71.78 128.19"/></svg>